PathFileType	4	(X/Y/Z)	C:/Users/beibeiliu/ov580/test_trc/User2\sequence.25_training_dense_right.trc
DataRate	CameraRate	NumFrames	NumMarkers	Units	OrigDataRate	OrigDataStartFrame	OrigNumFrames
120	120	16	19	mm	120	1	118
Frame#	Time	ThumbCMC			ThumbMCP			ThumbIP			ThumbTip			IndexMCP			IndexPIP			IndexTip			MiddleMCP			MiddlePIP			MiddleTip			RingMCP			RingPIP			RingTip			PinkyMCP			PinkyPIP			PinkyTip			BackHand1			BackHand2			BackHand3	
		X0	Y0	Z0	X1	Y1	Z1	X2	Y2	Z2	X3	Y3	Z3	X4	Y4	Z4	X5	Y5	Z5	X6	Y6	Z6	X7	Y7	Z7	X8	Y8	Z8	X9	Y9	Z9	X10	Y10	Z10	X11	Y11	Z11	X12	Y12	Z12	X13	Y13	Z13	X14	Y14	Z14	X15	Y15	Z15	X16	Y16	Z16	X17	Y17	Z17	X18	Y18	Z18	
0	0	84.0394	66.6114	-4.21435	40.2319	66.0958	-11.0646	10.7664	48.422	-26.9881	3.30668	23.9652	-39.8047	67.3562	65.2118	-85.61	45.8581	70.6301	-107.688	30.0561	76.7153	-124.862	50.1418	32.461	-83.2831	14.7631	35.813	-71.3533	19.8148	38.0547	-30.3267	46.8771	12.3828	-76.4328	16.3141	15.7912	-65.4849	18.0347	25.4886	-29.3996	63.7756	-13.6961	-65.1859	46.0902	-27.1279	-80.6947	31.7976	-38.573	-94.6712	102.827	13.1813	-43.4473	126.307	14.3196	-16.8135	115.286	48.7615	-30.0916	
1	0.00833333	95.7778	78.7943	-10.0322	59.7057	88.6127	-10.3509	23.0191	80.3119	-25.2828	4.70902	61.622	-33.105	75.1394	74.7067	-85.7015	57.9283	85.8163	-108.652	38.4358	90.1676	-128.314	51.0384	54.6839	-80.0816	17.3336	69.1083	-63.7407	28.7052	70.9064	-25.7596	38.9596	36.3506	-73.2856	12.714	42.7894	-60.376	24.6061	58.8296	-26.4152	46.1136	5.68943	-57.1525	22.133	-2.68516	-70.2723	2.6216	-6.04738	-84.7926	94.354	18.2975	-41.121	118.156	12.6928	-16.2988	118.673	48.4955	-35.3813	
2	0.0166667	113.116	81.0429	-11.0306	76.9853	100.746	-15.7295	40.1804	106.008	-25.7576	19.1038	88.5012	-31.1931	81.1535	76.1981	-88.4294	69.6214	89.2943	-108.851	50.5396	96.1179	-128.956	48.2129	68.9675	-80.2015	26.7031	92.0386	-62.7574	43.2522	92.5748	-25.0629	35.2251	50.3146	-68.0807	17.1203	71.0392	-57.7916	34.5993	80.6337	-25.7644	33.1944	22.9539	-51.3021	9.08923	23.1402	-57.076	-10.2717	22.5509	-69.0797	84.6268	20.8933	-39.9192	105.928	8.25726	-17.5922	118.563	40.403	-36.8857	
3	0.025	123.74	74.5396	-20.9797	98.9153	104.917	-23.1995	61.7896	117.182	-34.0186	34.5455	108.051	-35.9456	90.3967	70.4554	-92.3865	77.4572	84.8325	-118.643	60.9329	93.2066	-137.245	51.8798	70.8557	-80.7086	38.5413	103.185	-64.6589	57.7842	102.683	-31.0395	36.8073	63.6829	-69.5148	26.4643	91.1215	-55.2931	50.9526	94.668	-29.738	28.8618	38.6801	-46.168	7.03247	45.7787	-50.7402	-18.9837	48.4689	-62.1589	80.1893	22.3613	-40.6656	97.8849	7.28052	-13.3761	116.476	34.6103	-42.97	
4	0.0333333	133.77	65.0933	-30.0162	115.527	98.3032	-33.9399	84.8287	119.547	-44.9394	54.5884	115.066	-45.7155	95.8473	60.6746	-101.423	91.0653	72.1814	-124.6	75.3277	84.1896	-145.773	66.1655	70.0866	-87.5518	57.3119	107.66	-75.1421	75.7074	108.942	-43.1162	47.6104	66.1158	-71.5185	43.7816	99.8739	-64.2731	67.9652	100.292	-36.8462	33.1441	47.9939	-45.2501	7.80217	59.8137	-55.6079	-13.6711	67.4882	-64.0344	79.4089	21.6182	-38.6351	91.0286	3.6547	-13.4138	113.713	22.4116	-40.8486	
5	0.0416667	139.676	57.1235	-34.4301	125.527	89.755	-40.8106	101.802	113.115	-51.3105	72.191	115.513	-55.3095	107.847	52.2922	-105.297	97.2986	61.9543	-131.218	93.6056	74.3076	-157.733	73.1482	64.6005	-93.1643	66.7594	102.026	-87.1603	87.141	106.553	-54.4534	55.6855	67.0512	-80.6404	51.4691	97.4407	-73.7814	77.7349	100.369	-49.8149	35.9546	50.1889	-52.3103	19.2767	61.7136	-62.5164	-7.04943	70.1581	-72.8406	77.1857	20.3996	-41.6065	92.4494	4.67457	-17.5436	115.053	17.6957	-46.0411	
6	0.05	143.205	49.7844	-35.6516	134.438	85.3814	-47.7193	108.132	109.673	-63.8861	78.1603	112.03	-67.2633	114.62	42.5459	-109.204	111.979	51.6615	-137.395	100.167	60.2068	-160.739	82.7636	56.2842	-101.749	76.9065	93.2326	-97.6323	94.6557	98.4782	-62.1328	59.0402	58.1321	-86.5333	57.988	89.636	-82.8205	81.449	94.6928	-56.2736	45.7436	43.4038	-59.7972	21.331	55.4965	-69.9367	-0.0288198	63.3564	-84.2044	86.3422	13.1308	-44.5326	98.8164	0.0243149	-18.3144	122.229	11.8893	-47.6418	
7	0.0583333	150.104	44.2811	-35.4634	135.99	78.183	-53.3121	110.226	99.0094	-71.0295	79.1231	98.2773	-78.264	124.875	30.654	-113.748	117.395	38.6586	-142.652	111.574	45.2327	-169.086	87.3885	44.6929	-107.591	81.8403	80.6422	-105.167	97.681	86.5939	-66.155	64.8918	45.2434	-93.6461	61.9667	76.4828	-91.3439	86.0491	84.4682	-67.1984	52.665	29.3602	-66.1727	32.2729	38.3624	-79.7558	8.512	41.6237	-93.8248	92.3596	4.10614	-52.4697	105.097	-8.46289	-19.0027	132.493	3.45576	-47.6747	
8	0.0666667	150.331	40.1865	-42.1549	136.817	72.3641	-58.1413	110.876	87.3961	-76.6823	81.1826	85.7659	-86.5415	133.507	21.2132	-118.135	131.066	26.0161	-145.647	123.563	30.6307	-169.128	96.8699	28.958	-113.131	86.1618	66.5627	-112.143	97.4088	77.4298	-80.8023	78.5669	25.6852	-100.575	68.9276	56.4619	-104.603	87.7795	71.5046	-73.4954	60.4701	11.7132	-74.4087	41.163	17.792	-92.0627	20.3646	17.5559	-102.52	100.165	-7.95204	-53.668	111.678	-15.8317	-23.6632	139.831	-2.29351	-47.6764	
9	0.075	159.652	41.7545	-41.0247	136.695	69.4083	-62.678	110.773	79.959	-83.8204	81.8836	70.2557	-95.691	145.74	14.8566	-119.854	147.407	21.3107	-144.629	139.302	24.5464	-174.896	111.535	19.6177	-120.808	93.3516	52.798	-120.139	100.873	68.2836	-88.1735	90.4851	11.3683	-105.764	77.9081	40.0858	-113.243	90.6215	60.283	-84.2506	72.7296	-4.5316	-79.1856	55.5739	-3.09453	-98.4008	39.8718	-7.28449	-115.943	119.14	-11.4554	-54.5169	125.267	-19.4793	-26.2231	152.11	-5.82835	-47.6374	
10	0.0833333	158.614	45.4578	-43.4609	133.278	69.977	-67.6118	104.639	74.6995	-89.6274	80.9257	55.5939	-99.7458	160.564	19.6147	-116.476	159.84	25.0034	-148.802	152.048	23.6455	-172.779	122.532	13.3669	-121.131	97.8648	38.5593	-125.967	99.8169	57.5354	-90.6657	101.739	2.38819	-111.426	84.7326	26.9955	-117.472	91.0055	49.6955	-88.8781	89.1272	-17.2799	-83.2685	74.6384	-20.2013	-104.166	59.0433	-29.2438	-125.089	135.044	-13.8122	-54.0311	143.584	-19.7199	-23.4358	164.239	2.59168	-46.5051	
11	0.0916667	154.268	55.9238	-37.7065	125.918	67.2458	-63.3076	96.8138	64.1464	-92.4795	79.1161	42.5205	-104.256	167.21	31.9087	-116.966	165.33	33.6107	-146.032	161.234	35.184	-173.967	135.373	15.7178	-119.071	101.69	34.5694	-126.135	97.8444	52.8237	-91.4149	115.294	-1.59811	-112.408	90.9193	17.0388	-117.899	92.2792	40.6641	-87.6432	108.903	-23.2124	-91.3173	93.0891	-32.6943	-110.208	81.4037	-42.0482	-128.27	145.997	-12.2941	-58.3469	155.15	-12.803	-24.1061	172.658	16.6397	-48.9009	
12	0.1	145.008	65.2565	-35.2771	115.601	67.9143	-61.7267	92.2283	59.3339	-87.5203	81.7114	36.0471	-103.802	171.238	48.1807	-114.266	169.246	49.7867	-140.989	167.992	54.2956	-164.899	141.607	24.1987	-121.379	104.741	30.9412	-122.758	95.8821	42.5873	-88.7629	128.284	2.52845	-113.193	97.429	13.2352	-115.423	93.9889	34.3676	-86.3557	128.428	-25.3421	-91.4936	118.301	-32.9293	-113.009	110.766	-43.2156	-134.364	161.689	-2.33115	-55.4896	164.772	-2.29189	-22.4356	177.106	30.8496	-40.7236	
13	0.108333	137.976	65.2155	-33.728	108.156	66.7503	-60.267	91.9176	52.8399	-88.229	85.6979	30.8839	-104.413	169.88	60.1696	-106.703	171.064	66.0031	-135.189	171.663	72.0319	-164.548	150.77	28.9094	-115.154	114.433	30.8202	-125.042	97.6188	37.4297	-86.1189	139.415	6.80889	-113.05	111.996	16.4149	-117.624	97.3173	26.1257	-88.05	147.387	-19.3252	-88.7315	140.466	-29.8669	-115.662	138.789	-36.0781	-135.182	170.596	9.80466	-50.1382	173.291	8.05661	-21.0657	177.081	45.1921	-35.9049	
14	0.116667	131.398	69.3001	-30.4391	101.984	67.4581	-57.7534	91.6421	50.8617	-88.5452	95.854	25.7383	-109.278	169.07	77.9239	-104.005	168.99	82.8026	-131.449	169.569	90.9238	-154.984	154.506	44.771	-113.492	121.989	35.0655	-124.62	101.238	36.4552	-87.9672	150.844	15.7867	-110.702	117.777	17.6067	-116.469	104.14	26.7066	-84.0652	162.426	-7.24281	-89.3911	161.535	-19.9982	-112.244	163.079	-26.8244	-139.362	176.881	18.1308	-49.1298	178.625	20.301	-16.2681	173.445	55.2582	-34.9429	
15	0.125	121.981	71.6523	-26.378	98.117	62.3731	-55.4718	90.0685	48.4911	-88.0954	99.3847	27.9208	-107.586	159.286	93.3544	-94.9153	158.109	103.081	-122.167	159.085	111.989	-145.553	153.869	57.3599	-110.958	121.016	45.6693	-121.15	102.894	37.4394	-89.5902	156.289	34.0373	-109.138	129.72	21.086	-118.726	108.299	23.5496	-85.94	174.813	7.86513	-87.9417	177.756	-1.15626	-112.131	183.289	-5.08573	-137.198	180.891	31.5597	-44.2042	181.625	29.1428	-14.7318	166.488	65.3331	-25.3896	
